HIERARCHY
ROOT root
{
	OFFSET	0	13.1	24.9
	CHANNELS 6  Xposition Yposition Zposition Xrotation Yrotation Zrotation
	JOINT spine_1
	{
		OFFSET	0	9.99999	0
		CHANNELS 3  Xrotation Yrotation Zrotation
		JOINT spine_2
		{
			OFFSET	0	112	-10
			CHANNELS 3  Xrotation Yrotation Zrotation
			JOINT spine_3
			{
				OFFSET	0	206.5	19.3
				CHANNELS 3  Xrotation Yrotation Zrotation
				JOINT spine_4
				{
					OFFSET	0	110.4	14.6
					CHANNELS 3  Xrotation Yrotation Zrotation
					JOINT neck_1
					{
						OFFSET	0	71.8	-50.3
						CHANNELS 3  Xrotation Yrotation Zrotation
						JOINT neck_2
						{
							OFFSET	0	86.2	-25.8
							CHANNELS 3  Xrotation Yrotation Zrotation
							JOINT head_ee
							{
								OFFSET	0	179.8	-8.7
								CHANNELS 3  Xrotation Yrotation Zrotation
								End Site
								{
									OFFSET	1	0	0
								}
							}
						}
					}
					JOINT left_clavicle
					{
						OFFSET	-43.2	22.4	-70.8
						CHANNELS 3  Xrotation Yrotation Zrotation
						JOINT left_shoulder
						{
							OFFSET	-93.9	-5.79999	48.7
							CHANNELS 3  Xrotation Yrotation Zrotation
							JOINT left_elbow
							{
								OFFSET	-291.4	-30.8	15.2
								CHANNELS 3  Xrotation Yrotation Zrotation
								JOINT left_lowarm_twist
								{
									OFFSET	-110.7	-3.89999	13.6
									CHANNELS 3  Xrotation Yrotation Zrotation
									JOINT left_hand
									{
										OFFSET	-110.7	-3.89999	13.6
										CHANNELS 3  Xrotation Yrotation Zrotation
										JOINT left_ee
										{
											OFFSET	-80.8	-5.10001	12.1
											CHANNELS 3  Xrotation Yrotation Zrotation
											End Site
											{
												OFFSET	1	0	0
											}
										}
									}
								}
							}
						}
					}
					JOINT right_clavicle
					{
						OFFSET	43.2	22.4	-70.8
						CHANNELS 3  Xrotation Yrotation Zrotation
						JOINT right_shoulder
						{
							OFFSET	93.9	-5.79999	48.7
							CHANNELS 3  Xrotation Yrotation Zrotation
							JOINT right_elbow
							{
								OFFSET	291.4	-30.8	15.2
								CHANNELS 3  Xrotation Yrotation Zrotation
								JOINT right_lowarm_twist
								{
									OFFSET	110.7	-3.89999	13.6
									CHANNELS 3  Xrotation Yrotation Zrotation
									JOINT right_hand
									{
										OFFSET	110.7	-3.89999	13.6
										CHANNELS 3  Xrotation Yrotation Zrotation
										JOINT right_ee
										{
											OFFSET	80.8	-5.10001	12.1
											CHANNELS 3  Xrotation Yrotation Zrotation
											End Site
											{
												OFFSET	1	0	0
											}
										}
									}
								}
							}
						}
					}
				}
			}
		}
	}
	JOINT left_hip
	{
		OFFSET	-82.8	-127.5	0.300001
		CHANNELS 3  Xrotation Yrotation Zrotation
		JOINT left_knee
		{
			OFFSET	-28.2	-396.7	2.2
			CHANNELS 3  Xrotation Yrotation Zrotation
			JOINT left_ankle
			{
				OFFSET	-11.7	-411.3	35.4
				CHANNELS 3  Xrotation Yrotation Zrotation
				JOINT left_toes
				{
					OFFSET	0	-60	-88.6
					CHANNELS 3  Xrotation Yrotation Zrotation
					JOINT left_foot_ee
					{
						OFFSET	-22.5	-16.5	-42.2
						CHANNELS 3  Xrotation Yrotation Zrotation
						End Site
						{
							OFFSET	1	0	0
						}
					}
				}
			}
		}
	}
	JOINT right_hip
	{
		OFFSET	82.8	-127.5	0.300001
		CHANNELS 3  Xrotation Yrotation Zrotation
		JOINT right_knee
		{
			OFFSET	28.2	-396.7	2.2
			CHANNELS 3  Xrotation Yrotation Zrotation
			JOINT right_ankle
			{
				OFFSET	11.7	-411.3	35.4
				CHANNELS 3  Xrotation Yrotation Zrotation
				JOINT right_toes
				{
					OFFSET	0	-60	-88.6
					CHANNELS 3  Xrotation Yrotation Zrotation
					JOINT right_foot_ee
					{
						OFFSET	22.5	-16.5	-42.2
						CHANNELS 3  Xrotation Yrotation Zrotation
						End Site
						{
							OFFSET	1	0	0
						}
					}
				}
			}
		}
	}
}
MOTION
Frames: 5
Frame Time: 0.02
3393.13 695.622 -1399.6 -21.0201 70.8764 24.3268 1.82339 0.437336 0.38352 1.82338 0.412045 0.410571 1.82638 0.331954 0.477657 1.82629 0.403224 0.419238 -0.960127 12.3422 -3.21322 -0.475051 24.7337 -2.05077 -0.0 0.0 -0.0 -0.479086 7.00841 -0.0256935 -34.9973 -18.4183 78.1804 0.298607 -8.41442 0.0219661 0.365564 0.0127369 -0.0449502 0.156703 -2.37678 0.0474555 -0.0 0.0 -0.0 13.7887 27.0708 -27.3736 18.6423 21.5012 -57.0261 1.99253 44.6213 -0.817696 4.37519 -0.133476 0.542777 1.59119 13.3886 -5.01993 0.0 0.0 0.0 32.3948 2.73471 -12.879 5.80214 -0.282031 -0.845071 0.348954 5.0835 -0.0511096 -31.0477 0.0 0.0 -0.0 0.0 -0.0 -11.3641 -20.6517 -1.79482 -5.11771 -0.176623 -0.765297 38.4359 23.882 5.39201 -18.0042 0.0 0.0 0.0 0.0 0.0 
3369.64 695.977 -1393.18 -21.8341 70.1992 25.1288 2.05469 0.376114 0.345018 2.05469 0.353398 0.368252 2.05699 0.28353 0.424394 2.05691 0.346997 0.37429 -0.496152 12.5923 -3.09427 0.0294898 25.0366 -1.99706 -0.0 0.0 -0.0 -0.315294 6.56357 0.21214 -34.4562 -18.4867 78.0219 0.305745 -8.61259 0.0230229 0.211318 0.0073977 -0.0259742 0.138305 -2.25109 -0.0230274 -0.0 0.0 -0.0 13.5361 27.3085 -26.7557 17.5268 21.2012 -57.5012 1.94225 43.8897 -0.782609 4.32925 -0.13229 0.537028 1.61116 13.5164 -5.0982 0.0 0.0 0.0 32.0302 2.83244 -12.7415 5.75918 -0.27963 -0.838922 -0.241038 5.08392 0.0353541 -31.1533 0.0 0.0 -0.0 0.0 -0.0 -11.1682 -21.1241 -1.01477 -5.46105 -0.186014 -0.817152 38.2024 23.7857 5.36453 -17.9034 0.0 0.0 0.0 0.0 0.0 
3343.2 695.915 -1387.38 -23.7065 69.4097 27.1659 2.36731 0.208468 0.337783 2.36735 0.186552 0.350364 2.3685 0.124433 0.376925 2.36834 0.1824 0.352543 0.509475 13.0986 -2.56292 1.1043 25.3883 -1.586 -0.0 0.0 -0.0 -0.553606 6.60813 -0.21131 -33.167 -18.6569 77.9372 0.392715 -11.009 0.0378455 0.125232 0.00439552 -0.0153897 0.0809056 -1.48544 -0.0850287 -0.0 0.0 -0.0 13.3418 27.0207 -26.3426 16.2926 21.751 -58.6207 1.93868 43.8371 -0.780138 4.31976 -0.132045 0.53584 1.74961 13.7013 -5.951 0.0 0.0 0.0 30.9623 3.47665 -12.3721 6.09596 -0.298582 -0.88708 -0.65226 6.29783 0.0956659 -31.2071 0.0 0.0 -0.0 0.0 -0.0 -11.1223 -21.037 -0.0851902 -5.35259 -0.183081 -0.800765 37.7969 23.622 5.31676 -17.7387 0.0 0.0 0.0 0.0 0.0 
3320.7 703.739 -1377.83 -24.0959 69.1001 27.2274 2.6193 0.0969243 0.385823 2.61938 0.0721771 0.391209 2.61986 0.00653088 0.397758 2.61964 0.0692668 0.391734 0.659324 13.9558 -1.52127 1.26331 26.0463 -0.406219 -0.0 0.0 -0.0 -0.557218 6.43534 -0.240308 -31.802 -18.8586 77.664 0.442407 -12.3615 0.0479105 0.0887509 0.00311881 -0.0109055 -0.101417 -1.0408 -1.11825 -0.0 0.0 -0.0 13.1267 26.9613 -25.8529 13.7154 21.4176 -59.1294 1.88152 42.9814 -0.740854 3.47144 -0.109311 0.429861 1.96169 13.8417 -7.32258 0.0 0.0 0.0 29.0137 4.37402 -10.6831 6.54391 -0.32423 -0.950964 -0.134988 6.55567 0.0197711 -30.9158 0.0 0.0 -0.0 0.0 -0.0 -10.8197 -20.9996 1.24958 -5.87737 -0.196983 -0.880101 35.0741 22.8898 5.00571 -18.066 0.0 0.0 0.0 0.0 0.0 
3296.28 703.287 -1372.85 -24.111 69.0008 26.7701 2.78446 -0.0327769 0.331501 2.78452 -0.0538045 0.328743 2.78419 -0.106492 0.315637 2.78406 -0.0553069 0.328494 1.50996 13.8667 -1.5116 2.16013 25.744 -0.573922 -0.0 0.0 -0.0 -0.217693 5.77534 0.290966 -30.221 -19.1256 76.8892 0.500024 -13.9122 0.0610066 -2.83798e-05 -9.99944e-07 3.4865e-06 -0.0181242 -0.704122 -0.41827 -0.0 0.0 -0.0 13.0705 27.079 -25.7083 12.7555 21.3379 -60.1822 1.83025 42.193 -0.706159 3.60714 -0.113053 0.446792 1.85636 12.9145 -7.02373 0.0 0.0 0.0 28.0782 4.58713 -10.3838 6.57956 -0.326292 -0.95604 -0.900837 6.99237 0.13215 -31.2528 0.0 0.0 -0.0 0.0 -0.0 -10.2947 -20.5572 2.89765 -6.90105 -0.222007 -1.0352 36.6744 23.25 5.18699 -17.619 0.0 0.0 0.0 0.0 0.0 
